<svg xmlns="http://www.w3.org/2000/svg" id="svg2" viewBox="0 0 979.757 567.444"><defs><marker orient="auto" overflow="visible"><path fill-rule="evenodd" stroke="#000" stroke-width="1.0664" d="M3.92 0c0 2.208-1.792 4-4 4s-4-1.792-4-4 1.792-4 4-4 4 1.792 4 4z"/></marker><marker orient="auto" overflow="visible"><path fill-rule="evenodd" stroke-width=".625" d="M-10.69-4.437L1.328-.017l-12.018 4.42c1.92-2.61 1.91-6.18 0-8.84z" stroke-linejoin="round"/></marker><marker orient="auto" overflow="visible"><path fill-rule="evenodd" stroke="#000" stroke-width=".6875" d="M-10.69-4.437L1.328-.017l-12.018 4.42c1.92-2.61 1.91-6.18 0-8.84z" stroke-linejoin="round"/></marker><marker orient="auto" overflow="visible"><path fill-rule="evenodd" stroke="#000" stroke-width=".6875" d="M-10.69-4.437L1.328-.017l-12.018 4.42c1.92-2.61 1.91-6.18 0-8.84z" stroke-linejoin="round"/></marker><marker orient="auto" overflow="visible"><path fill-rule="evenodd" stroke="#000" stroke-width="1.0664" d="M-10 0l-4 4L0 0l-14-4z"/></marker><marker orient="auto" overflow="visible"><path fill-rule="evenodd" stroke="#000" stroke-width="1.0664" d="M-10 0l-4 4L0 0l-14-4z"/></marker><marker orient="auto" overflow="visible"><path fill-rule="evenodd" stroke="#000" stroke-width=".6875" d="M10.69 4.437L-1.328.017l12.018-4.42c-1.92 2.61-1.91 6.18 0 8.84z" stroke-linejoin="round"/></marker><marker orient="auto" overflow="visible"><path fill-rule="evenodd" stroke="#000" stroke-width=".375" d="M5.23 2.42L-1.323.01 5.23-2.4C4.185-.98 4.19.97 5.23 2.42z" stroke-linejoin="round"/></marker><marker orient="auto" overflow="visible"><path fill-rule="evenodd" stroke="#000" stroke-width=".6875" d="M10.69 4.437L-1.328.017l12.018-4.42c-1.92 2.61-1.91 6.18 0 8.84z" stroke-linejoin="round"/></marker><marker orient="auto" overflow="visible"><path fill-rule="evenodd" stroke="#000" stroke-width=".6875" d="M10.69 4.437L-1.328.017l12.018-4.42c-1.92 2.61-1.91 6.18 0 8.84z" stroke-linejoin="round"/></marker><marker orient="auto" overflow="visible"><path fill-rule="evenodd" stroke="#000" stroke-width="1.0664" d="M10 0l4-4L0 0l14 4z"/></marker><marker orient="auto" overflow="visible"><path fill-rule="evenodd" stroke="#000" stroke-width=".6875" d="M-10.69-4.437L1.328-.017l-12.018 4.42c1.92-2.61 1.91-6.18 0-8.84z" stroke-linejoin="round"/></marker><marker orient="auto" overflow="visible"><path fill-rule="evenodd" stroke="#000" stroke-width=".6875" d="M-10.69-4.437L1.328-.017l-12.018 4.42c1.92-2.61 1.91-6.18 0-8.84z" stroke-linejoin="round"/></marker><marker orient="auto" overflow="visible"><path fill-rule="evenodd" stroke="#000" stroke-width=".6875" d="M-10.69-4.437L1.328-.017l-12.018 4.42c1.92-2.61 1.91-6.18 0-8.84z" stroke-linejoin="round"/></marker><marker orient="auto" overflow="visible"><path fill-rule="evenodd" stroke="#000" stroke-width=".6875" d="M-10.69-4.437L1.328-.017l-12.018 4.42c1.92-2.61 1.91-6.18 0-8.84z" stroke-linejoin="round"/></marker><marker orient="auto" overflow="visible"><path fill-rule="evenodd" stroke="#000" stroke-width=".6875" d="M-10.69-4.437L1.328-.017l-12.018 4.42c1.92-2.61 1.91-6.18 0-8.84z" stroke-linejoin="round"/></marker><marker orient="auto" overflow="visible"><path fill-rule="evenodd" stroke="#000" stroke-width=".6875" d="M-10.69-4.437L1.328-.017l-12.018 4.42c1.92-2.61 1.91-6.18 0-8.84z" stroke-linejoin="round"/></marker><marker orient="auto" overflow="visible"><path fill-rule="evenodd" stroke="#000" stroke-width=".6875" d="M-10.69-4.437L1.328-.017l-12.018 4.42c1.92-2.61 1.91-6.18 0-8.84z" stroke-linejoin="round"/></marker><marker orient="auto" overflow="visible"><path fill-rule="evenodd" stroke="#000" stroke-width=".6875" d="M-10.69-4.437L1.328-.017l-12.018 4.42c1.92-2.61 1.91-6.18 0-8.84z" stroke-linejoin="round"/></marker><marker orient="auto" overflow="visible"><path fill-rule="evenodd" stroke="#000" stroke-width=".6875" d="M-10.69-4.437L1.328-.017l-12.018 4.42c1.92-2.61 1.91-6.18 0-8.84z" stroke-linejoin="round"/></marker><marker orient="auto" overflow="visible"><path fill-rule="evenodd" stroke="#000" stroke-width=".6875" d="M-10.69-4.437L1.328-.017l-12.018 4.42c1.92-2.61 1.91-6.18 0-8.84z" stroke-linejoin="round"/></marker><marker orient="auto" overflow="visible"><path fill-rule="evenodd" stroke="#000" stroke-width=".6875" d="M-10.69-4.437L1.328-.017l-12.018 4.42c1.92-2.61 1.91-6.18 0-8.84z" stroke-linejoin="round"/></marker><marker orient="auto" overflow="visible"><path fill-rule="evenodd" stroke="#000" stroke-width=".6875" d="M-10.69-4.437L1.328-.017l-12.018 4.42c1.92-2.61 1.91-6.18 0-8.84z" stroke-linejoin="round"/></marker></defs><g transform="translate(833.49503,-566.81923)"><path fill="none" fill-rule="evenodd" stroke="#000" stroke-width="3" d="M-377.43 982.08h14.004m64.59 60.38a8.435 8.585 0 0 1-8.434 8.584 8.435 8.585 0 0 1-8.435-8.585 8.435 8.585 0 0 1 8.435-8.587 8.435 8.585 0 0 1 8.435 8.586zm-118.3-95.827h101.042v185.627h-101.04zm62.5 36.652v-20.93m-6.01 5.463c2.96-1.578 4.126-2.587 6.03-5.43m-22.768 15.684l13.794-5.982m-13.794-5.848l13.928 5.804" stroke-linecap="round"/><path fill="none" fill-rule="evenodd" stroke="#000" stroke-width="3" d="M-377.432 604.27h14.006m64.59 60.38a8.435 8.585 0 0 1-8.434 8.584 8.435 8.585 0 0 1-8.435-8.585 8.435 8.585 0 0 1 8.435-8.587 8.435 8.585 0 0 1 8.435 8.586zm-118.3-95.827h101.042V754.45h-101.04zm62.5 36.652v-20.93m-6.01 5.462c2.96-1.578 4.126-2.586 6.03-5.43m-22.768 15.685l13.794-5.982m-13.794-5.848l13.928 5.804" stroke-linecap="round"/><text x="-699.433" y="616.763" stroke-width=".938" style="line-height:125%" font-size="37.5" font-family="sans-serif" letter-spacing="0" word-spacing="0"><tspan x="-699.433" y="616.763">R</tspan></text><text x="-695.01" y="1115.12" stroke-width=".937" style="line-height:125%" font-size="37.5" font-family="sans-serif" letter-spacing="0" word-spacing="0"><tspan x="-695.01" y="1115.12">S</tspan></text><text x="-20.948" y="678.245" stroke-width=".937" style="line-height:125%" font-size="37.5" font-family="sans-serif" letter-spacing="0" word-spacing="0"><tspan x="-20.948" y="678.245">Q</tspan></text><circle cx="-267.451" cy="664.341" r="2.9" stroke="#000" stroke-width="3" stroke-linecap="round"/><path id="set_inactive" fill="red" fill-rule="evenodd" stroke="red" stroke-width="3" d="M-662.835 1102.557h245.7" class="set_inactive" stroke-linecap="round"/><path id="set_active" fill="red" fill-rule="evenodd" stroke="#0f0" stroke-width="3" d="M-662.835 1102.557h245.7" class="set_active" stroke-linecap="round"/><path id="reset_inactive" fill="none" fill-rule="evenodd" stroke="red" stroke-width="3" d="M-662.835 605.454h245.7" class="reset_inactive" stroke-linecap="round"/><path id="reset_active" fill="none" fill-rule="evenodd" stroke="#0f0" stroke-width="3" d="M-662.835 605.454h245.7" class="reset_active" stroke-linecap="round"/><path id="q_out_inactive" fill="none" fill-rule="evenodd" stroke="red" stroke-width="3" d="M-300.133 664.197h275.735" class="q_out_inactive q_inactive"/><path id="q_out_active" fill="none" fill-rule="evenodd" stroke="#0f0" stroke-width="3" d="M-300.133 664.197h275.735" class="q_out_active q_active"/><path id="q_back_inactive" fill="none" fill-rule="evenodd" stroke="red" stroke-width="3" d="M-300.434 664.84h33.17v133.965l-223.53 108.16 1.875 76.943h69.89" class="q_back_inactive q_inactive"/><path id="q_back_active" fill="none" fill-rule="evenodd" stroke="#0f0" stroke-width="3" d="M-300.434 664.84h33.17v133.965l-223.53 108.16 1.875 76.943h69.89" class="q_back_active q_active"/><path id="q_not_inactive" fill="none" fill-rule="evenodd" stroke="red" stroke-width="3" d="M-300.133 1042.007h33.17V906.323l-224.133-106.875v-74.7h72.667"/><path id="q_not_active" fill="none" fill-rule="evenodd" stroke="#0f0" stroke-width="3" d="M-300.133 1042.007h33.17V906.323l-224.133-106.875v-74.7h72.667" class="q_not_active"/><path id="nor_top_spinner" stroke-width=".097" d="M-366.765 637.536c-14.72 0-26.666 11.976-26.666 26.698 0 14.72 11.885 26.697 26.76 26.697v-8.924c-9.817 0-17.836-7.973-17.836-17.772 0-9.8 7.91-17.773 17.71-17.773 9.6 0 17.442 7.653 17.758 17.178h-4.398l8.827 12.4 8.828-12.4h-4.324c-.317-14.447-12.137-26.102-26.66-26.102z" class="nor_top_spinner" visibility="hidden"/><path id="nor_bottom_spinner" stroke-width=".097" d="M-366.197 1015.817c-14.72 0-26.666 11.977-26.666 26.698 0 14.72 11.886 26.697 26.76 26.697v-8.924c-9.817 0-17.835-7.973-17.835-17.773s7.91-17.773 17.71-17.773c9.6 0 17.442 7.653 17.757 17.178h-4.398l8.827 12.4 8.826-12.4h-4.325c-.315-14.448-12.135-26.103-26.657-26.103z" class="nor_bottom_spinner" visibility="hidden"/><text id="text3445" x="-257.951" y="1053.486" style="line-height:125%;text-decoration-line:overline" font-size="40" font-family="sans-serif" text-decoration="overline" letter-spacing="0" word-spacing="0"><tspan id="tspan3447" x="-257.951" y="1053.486">Q</tspan></text></g></svg>